<svg xmlns="http://www.w3.org/2000/svg" xmlns:xlink="http://www.w3.org/1999/xlink" viewBox="0 0 489.58 403.15"><defs><style>.cls-1{fill:url(#linear-gradient);}.cls-2{fill:url(#linear-gradient-2);}.cls-3{fill:url(#linear-gradient-3);}.cls-4{fill:url(#linear-gradient-4);}</style><linearGradient id="linear-gradient" x1="-96.94" y1="96.86" x2="403.4" y2="502.06" gradientUnits="userSpaceOnUse"><stop offset="0" stop-color="#ff4bc9"/><stop offset="1" stop-color="#56e0ff"/></linearGradient><linearGradient id="linear-gradient-2" x1="-66.39" y1="59.14" x2="433.95" y2="464.34" xlink:href="#linear-gradient"/><linearGradient id="linear-gradient-3" x1="-39.31" y1="25.71" x2="461.03" y2="430.9" xlink:href="#linear-gradient"/><linearGradient id="linear-gradient-4" x1="67.94" y1="-106.73" x2="568.28" y2="298.47" xlink:href="#linear-gradient"/></defs><title>JH Gradient</title><g id="Layer_2" data-name="Layer 2"><g id="Layer_1-2" data-name="Layer 1"><path class="cls-1" d="M3.88,187.75a29.81,29.81,0,0,0,2.44,3.39l.95,1.12h0l.25.28.46.54a4.06,4.06,0,0,0,.3.35l.05,0c.84,1,1.93,2.33,2.87,3.57.8,1.08,1.51,2.12,2.16,3.18a17.61,17.61,0,0,1,1.55,3.11,14.72,14.72,0,0,1,.82,3.65,21.59,21.59,0,0,1,0,3.87c-.08.86-.2,1.78-.37,2.79a2.73,2.73,0,0,0,2.7,3.2,2.62,2.62,0,0,0,1-.2,16.44,16.44,0,0,0,2.79-1.45,17.85,17.85,0,0,0,4.31-3.86,19.3,19.3,0,0,0,3.41-6.49,22.35,22.35,0,0,0,.8-8.51,26.8,26.8,0,0,0-2.33-8.47,32.67,32.67,0,0,0-4.44-7.08c-.45-.56-1-1.2-1.27-1.47l-.63-.7-.41-.44-.17-.17c-.2-.2-.4-.41-.57-.61l-.1-.11-.24-.24c-.13-.15-.27-.28-.39-.43l-.09-.11c-.9-1-1.68-1.91-2.37-2.81a19.19,19.19,0,0,1-1.84-2.84,13.18,13.18,0,0,1-1.2-3.42,20.45,20.45,0,0,1-.43-3.84c0-1.18,0-2.29.09-3a2.74,2.74,0,0,0-3.92-2.67,17,17,0,0,0-3,1.81,17.6,17.6,0,0,0-4,4.26,18.41,18.41,0,0,0-2.79,6.9,21.92,21.92,0,0,0,.16,8.68A26.62,26.62,0,0,0,3.88,187.75Z"/><path class="cls-2" d="M23.76,152.24a64.2,64.2,0,0,0,5.39,7.49c.52.65,2,2.34,2,2.36l.58.66c.4.45.69.8,1,1.15s.5.59.75.86l0,0c2.74,3.28,4.68,5.69,6.27,7.82,1.77,2.35,3.32,4.62,4.74,6.95a39.58,39.58,0,0,1,3.42,6.84,32.27,32.27,0,0,1,1.79,8,47,47,0,0,1,0,8.5c-.26,2.93-.71,5.61-1.07,7.56-.27,1.34-.53,2.58-.77,3.65a2.73,2.73,0,0,0,2.67,3.34,2.38,2.38,0,0,0,.53-.05,27.58,27.58,0,0,0,3.75-1,36.5,36.5,0,0,0,8.4-4,38.71,38.71,0,0,0,9.41-8.44,42.5,42.5,0,0,0,7.48-14.22,48.27,48.27,0,0,0,1.75-18.65,58.82,58.82,0,0,0-5.12-18.55A71.34,71.34,0,0,0,67,137c-1.11-1.37-2.24-2.67-2.83-3.27l-1.34-1.47c-.33-.38-.6-.68-.88-.95l-.4-.4c-.44-.45-.89-.9-1.27-1.36a.87.87,0,0,0-.09-.11c-.18-.2-.38-.4-.6-.62a12.41,12.41,0,0,1-.89-1l-.12-.13c-2.05-2.25-3.77-4.3-5.26-6.25a41.51,41.51,0,0,1-4-6.19,28.63,28.63,0,0,1-2.64-7.49,46.76,46.76,0,0,1-.93-8.41A72.87,72.87,0,0,1,46,91.71c.13-1.47.27-2.78.41-3.94a2.74,2.74,0,0,0-3.41-3,30.05,30.05,0,0,0-4,1.34,36.17,36.17,0,0,0-8.16,4.71,38.47,38.47,0,0,0-8.72,9.33A40.65,40.65,0,0,0,16,115.3a48.15,48.15,0,0,0,.36,19A57.8,57.8,0,0,0,23.76,152.24Z"/><path class="cls-3" d="M266,0h-61.1a10.46,10.46,0,0,0-10.47,10.46V42.24h0v222.7a56.19,56.19,0,0,1-56.19,56.18h-5A51.2,51.2,0,0,1,82,269.92V249.29a12.24,12.24,0,0,0-12.24-12.24H12.24A12.24,12.24,0,0,0,0,249.29v20.63A133.23,133.23,0,0,0,133.22,403.15h5A138.21,138.21,0,0,0,276.42,264.94V10.46A10.46,10.46,0,0,0,266,0Z"/><path class="cls-4" d="M479.74.05H417.53a9.87,9.87,0,0,0-9.84,9.84V160.63h-102A8.67,8.67,0,0,0,297,169.3v64.55a8.67,8.67,0,0,0,8.67,8.67h102V393.26a9.86,9.86,0,0,0,9.84,9.83h62.21a9.86,9.86,0,0,0,9.84-9.83V9.89A9.87,9.87,0,0,0,479.74.05Z"/></g></g></svg>